<svg width="638" height="253" viewBox="0 0 638 253" fill="none" xmlns="http://www.w3.org/2000/svg">
<path d="M541.668 156.324C548.826 151.837 562.476 143.981 567.45 140.183C571.463 137.116 575.533 134.166 577.087 131.459C578.638 128.753 577.468 125.166 574.674 123.558C574.674 123.558 565.906 116.051 560.873 113.863C556.454 110.624 545.52 106.851 545.52 106.851C542.718 105.246 539.035 106.048 537.48 108.755C535.93 111.464 535.441 116.467 534.824 121.483C534.061 127.691 534.189 143.442 533.928 151.888C533.887 153.33 540.444 157.089 541.668 156.324Z" fill="#D99E82"/>
<path d="M624.856 48.1186C624.118 49.4063 623.131 50.5348 621.952 51.4396C620.773 52.3443 619.425 53.0076 617.984 53.3915C616.544 53.7754 615.039 53.8724 613.556 53.677C612.074 53.4816 610.642 52.9977 609.343 52.2528L589.553 40.9128C586.93 39.4078 585.007 36.9325 584.205 34.0308C583.404 31.1291 583.79 28.0384 585.279 25.4377L596.521 5.82369C598.013 3.2245 600.485 1.32908 603.393 0.55389C606.302 -0.221298 609.41 0.187163 612.034 1.68952L631.821 13.0305C633.12 13.7749 634.261 14.7658 635.179 15.9465C636.097 17.1272 636.774 18.4745 637.171 19.9116C637.568 21.3487 637.677 22.8473 637.492 24.3219C637.307 25.7965 636.832 27.2181 636.094 28.5056L624.856 48.1186Z" fill="#EA596E"/>
<path d="M577.087 131.459L537.512 108.782L579.661 35.24L619.235 57.9256L577.087 131.459Z" fill="#FFCC4D"/>
<path d="M534.106 145.804C534.106 145.804 531.341 157.342 534.817 159.334C538.293 161.326 546.82 153.085 546.82 153.085C546.82 153.085 544.01 143.603 534.106 145.804Z" fill="white"/>
<path d="M593.711 10.7272L633.288 33.4118L619.237 57.9209L579.661 35.24L593.711 10.7272Z" fill="#CCD6DD"/>
<path d="M590.904 15.6297L630.477 38.3116L627.666 43.2151L588.094 20.5332L590.904 15.6297ZM585.274 25.435L624.852 48.1196L622.041 53.0231L582.468 30.3375L585.274 25.435Z" fill="#99AAB5"/>
<path d="M13.3 114.96H33.6V198.4H82.04V218H13.3V114.96ZM129.868 219.68C122.401 219.68 116.054 218.28 110.828 215.48C105.694 212.68 101.774 208.807 99.0675 203.86C96.3608 198.913 95.0075 193.22 95.0075 186.78C95.0075 180.62 96.5942 175.067 99.7675 170.12C102.941 165.173 107.188 161.253 112.508 158.36C117.828 155.373 123.754 153.88 130.288 153.88C139.061 153.88 146.248 156.447 151.848 161.58C157.541 166.62 161.227 173.947 162.908 183.56L115.308 198.68L110.968 188.04L145.408 176.42L141.348 178.24C140.601 175.813 139.248 173.713 137.288 171.94C135.421 170.073 132.574 169.14 128.748 169.14C125.854 169.14 123.288 169.84 121.048 171.24C118.901 172.547 117.221 174.46 116.008 176.98C114.888 179.407 114.328 182.3 114.328 185.66C114.328 189.487 115.028 192.707 116.428 195.32C117.828 197.84 119.741 199.753 122.168 201.06C124.594 202.367 127.301 203.02 130.288 203.02C132.434 203.02 134.488 202.647 136.448 201.9C138.501 201.153 140.508 200.173 142.468 198.96L151.148 213.52C147.881 215.387 144.334 216.88 140.508 218C136.774 219.12 133.228 219.68 129.868 219.68ZM202.91 219.68C197.217 219.68 192.037 218.56 187.37 216.32C182.797 213.987 179.157 210.44 176.45 205.68C173.744 200.92 172.39 194.853 172.39 187.48C172.39 180.573 173.79 174.6 176.59 169.56C179.39 164.52 183.077 160.647 187.65 157.94C192.224 155.14 197.077 153.74 202.21 153.74C208.277 153.74 212.85 154.767 215.93 156.82C219.104 158.78 221.717 160.973 223.77 163.4L222.93 165.78L224.75 156.82H242.95V218H223.35V204.7L224.89 208.9C224.704 208.9 224.144 209.46 223.21 210.58C222.277 211.607 220.877 212.867 219.01 214.36C217.237 215.76 214.997 216.973 212.29 218C209.677 219.12 206.55 219.68 202.91 219.68ZM208.51 203.72C210.844 203.72 212.944 203.393 214.81 202.74C216.677 201.993 218.31 200.967 219.71 199.66C221.11 198.26 222.324 196.533 223.35 194.48V179.5C222.604 177.447 221.484 175.72 219.99 174.32C218.497 172.827 216.724 171.707 214.67 170.96C212.617 170.12 210.33 169.7 207.81 169.7C205.01 169.7 202.397 170.447 199.97 171.94C197.637 173.34 195.77 175.3 194.37 177.82C192.97 180.34 192.27 183.233 192.27 186.5C192.27 189.767 193.017 192.707 194.51 195.32C196.004 197.933 197.964 199.987 200.39 201.48C202.91 202.973 205.617 203.72 208.51 203.72ZM280.786 156.82L282.606 173.62L282.186 171.1C283.96 167.46 286.386 164.38 289.466 161.86C292.546 159.247 295.58 157.24 298.566 155.84C301.646 154.44 303.98 153.74 305.566 153.74L304.586 173.34C300.013 172.78 296.093 173.527 292.826 175.58C289.56 177.633 287.04 180.34 285.266 183.7C283.493 187.06 282.606 190.513 282.606 194.06V218H263.146V156.82H280.786ZM338.348 156.82L339.888 167.74L339.608 166.76C341.755 162.933 344.788 159.853 348.708 157.52C352.628 155.093 357.435 153.88 363.128 153.88C368.915 153.88 373.722 155.607 377.548 159.06C381.468 162.42 383.475 166.807 383.568 172.22V218H363.968V179.5C363.875 176.793 363.128 174.647 361.728 173.06C360.422 171.38 358.182 170.54 355.008 170.54C352.022 170.54 349.408 171.52 347.168 173.48C344.928 175.44 343.202 178.1 341.988 181.46C340.775 184.82 340.168 188.693 340.168 193.08V218H320.568V156.82H338.348ZM421.473 156.82L423.013 167.74L422.733 166.76C424.88 162.933 427.913 159.853 431.833 157.52C435.753 155.093 440.56 153.88 446.253 153.88C452.04 153.88 456.847 155.607 460.673 159.06C464.593 162.42 466.6 166.807 466.693 172.22V218H447.093V179.5C447 176.793 446.253 174.647 444.853 173.06C443.547 171.38 441.307 170.54 438.133 170.54C435.147 170.54 432.533 171.52 430.293 173.48C428.053 175.44 426.327 178.1 425.113 181.46C423.9 184.82 423.293 188.693 423.293 193.08V218H403.693V156.82H421.473ZM488.984 247.4L529.724 156.82H547.364L507.884 247.4H488.984ZM505.364 218.28L475.404 156.82H497.384L520.484 208.48L505.364 218.28Z" fill="white"/>
</svg>
